 Description

Complete name : E:\Violent Blue 2011 DVDRip 480p Xvid AC3-THC\Violent Blue 2011 DVDRip 480p Xvid AC3-THC.avi
Format : AVI
Format/Info : Audio Video Interleave
Format profile : OpenDML
File size : 2.22 GiB
Duration : 2h 8mn
Overall bit rate : 2 462 Kbps
Writing application : AVI-Mux GUI 1.17.8.3, Feb 16 201019:42:50
Video
ID : 0
Format : MPEG-4 Visual
Format profile : Advanced Simple@L5
Format settings, BVOP : Yes
Format settings, QPel : Yes
Format settings, GMC : No warppoints
Format settings, Matrix : Custom
Codec ID : XVID
Codec ID/Hint : XviD
Duration : 2h 8mn
Bit rate : 2 008 Kbps
Width : 720 pixels
Height : 304 pixels
Display aspect ratio : 2.35:1
Frame rate : 23.976 fps
Color space : YUV
Chroma subsampling : 4:2:0
Bit depth : 8 bits
Scan type : Progressive
Compression mode : Lossy
Bits/(Pixel*Frame) : 0.383
Stream size : 1.81 GiB (82%)
Writing library : XviD 57
Audio
ID : 1
Format : AC-3
Format/Info : Audio Coding 3
Mode extension : CM (complete main)
Codec ID : 2000
Duration : 2h 8mn
Bit rate mode : Constant
Bit rate : 448 Kbps
Channel(s) : 6 channels
Channel positions : Front: L C R, Side: L R, LFE
Sampling rate : 48.0 KHz
Bit depth : 16 bits
Compression mode : Lossy
Stream size : 413 MiB (18%)
Alignment : Aligned on interleaves
Interleave, duration : 64 ms (1.53 video frames)
Interleave, preload duration : 192 ms
Title : VTS_03_1 T80 5.1ch 448kbps swedish_english
Actors: Silvia Suvadova, Jesse Hlubik, Nick Mancuso, Barry O'Rourke, Andrea Harrison
Directors: Gregory Hatanaka
Language: English & Polish
Subtitle: English
Rated: Unrated
Studio: Cinema Epoch
DVD Release Date: January 25, 2011
Run Time: 129 minutes
Sample Included: Yes
Encoder: Freebee269 
http://www.imdb.com/title/tt1303773/ 
http://www.amazon.com/Violent-Blue-Silvi...118&sr=8-1


Plot

Katarina is a music teacher intent on completing and uncovering the mystery behind an unfinished symphony. She worries about her brother, Ondrej , an introverted electronics inventor who finds himself falling in love with the mysterious student who lives downstairs. His work is also being financed by reputedly shady and dangerous people. One day, Katarina's ex-husband Pietro shows up in her house and locks her in a cage.


Release Note

NOTE: half this movie is english, the other half is swedish. therefore i hard coded the english subtitles. 

WWW..CRAZY-TORRENT..COM